<?xml version="1.0" encoding="UTF-8"?>
<svg version="1.1" xmlns="http://www.w3.org/2000/svg" width="48" height="48">
<path d="M0 0 C3.10432414 4.04364981 1.881331 10.39911911 1.85351562 15.28198242 C1.88348633 17.14306641 1.88348633 17.14306641 1.9140625 19.04174805 C1.91341797 20.23348633 1.91277344 21.42522461 1.91210938 22.65307617 C1.91488892 24.28974243 1.91488892 24.28974243 1.91772461 25.95947266 C1.41601562 28.84448242 1.41601562 28.84448242 -0.23022461 31.20043945 C-3.24857822 33.30868478 -5.07632188 33.34683508 -8.74023438 33.34057617 C-9.92746094 33.3412207 -11.1146875 33.34186523 -12.33789062 33.3425293 C-13.57410156 33.32254883 -14.8103125 33.30256836 -16.08398438 33.28198242 C-17.32019531 33.28907227 -18.55640625 33.29616211 -19.83007812 33.3034668 C-30.16257278 33.23054474 -30.16257278 33.23054474 -33.58398438 29.84448242 C-35.20433729 24.98342368 -34.81015564 19.99739666 -34.83398438 14.90698242 C-34.85460938 13.8093457 -34.87523437 12.71170898 -34.89648438 11.58081055 C-34.90164062 10.52442383 -34.90679687 9.46803711 -34.91210938 8.37963867 C-34.92145508 7.41421143 -34.93080078 6.44878418 -34.94042969 5.45410156 C-34.51733602 2.35653427 -33.82366616 1.01383226 -31.58398438 -1.15551758 C-29.56616211 -1.71728516 -29.56616211 -1.71728516 -27.26757812 -1.80004883 C-26.00385376 -1.85660645 -26.00385376 -1.85660645 -24.71459961 -1.91430664 C-23.82587158 -1.93203125 -22.93714355 -1.94975586 -22.02148438 -1.96801758 C-20.6680896 -2.01200684 -20.6680896 -2.01200684 -19.28735352 -2.05688477 C-3.39409865 -2.47599706 -3.39409865 -2.47599706 0 0 Z " fill="#1D3E77" transform="translate(40.583984375,9.155517578125)"/>
<path d="M0 0 C3.10432414 4.04364981 1.881331 10.39911911 1.85351562 15.28198242 C1.88348633 17.14306641 1.88348633 17.14306641 1.9140625 19.04174805 C1.91341797 20.23348633 1.91277344 21.42522461 1.91210938 22.65307617 C1.91488892 24.28974243 1.91488892 24.28974243 1.91772461 25.95947266 C1.41601562 28.84448242 1.41601562 28.84448242 -0.23022461 31.20043945 C-3.24857822 33.30868478 -5.07632188 33.34683508 -8.74023438 33.34057617 C-9.92746094 33.3412207 -11.1146875 33.34186523 -12.33789062 33.3425293 C-13.57410156 33.32254883 -14.8103125 33.30256836 -16.08398438 33.28198242 C-17.32019531 33.28907227 -18.55640625 33.29616211 -19.83007812 33.3034668 C-30.16257278 33.23054474 -30.16257278 33.23054474 -33.58398438 29.84448242 C-35.20433729 24.98342368 -34.81015564 19.99739666 -34.83398438 14.90698242 C-34.85460938 13.8093457 -34.87523437 12.71170898 -34.89648438 11.58081055 C-34.90164062 10.52442383 -34.90679687 9.46803711 -34.91210938 8.37963867 C-34.92145508 7.41421143 -34.93080078 6.44878418 -34.94042969 5.45410156 C-34.51733602 2.35653427 -33.82366616 1.01383226 -31.58398438 -1.15551758 C-29.56616211 -1.71728516 -29.56616211 -1.71728516 -27.26757812 -1.80004883 C-26.00385376 -1.85660645 -26.00385376 -1.85660645 -24.71459961 -1.91430664 C-23.82587158 -1.93203125 -22.93714355 -1.94975586 -22.02148438 -1.96801758 C-20.6680896 -2.01200684 -20.6680896 -2.01200684 -19.28735352 -2.05688477 C-3.39409865 -2.47599706 -3.39409865 -2.47599706 0 0 Z M-31.42407227 1.01806641 C-33.04806508 3.57523126 -32.972339 5.48355118 -32.98242188 8.50073242 C-32.98628906 9.60545898 -32.99015625 10.71018555 -32.99414062 11.84838867 C-32.98253906 13.00209961 -32.9709375 14.15581055 -32.95898438 15.34448242 C-32.97058594 16.49819336 -32.9821875 17.6519043 -32.99414062 18.84057617 C-32.99027344 19.94530273 -32.98640625 21.0500293 -32.98242188 22.18823242 C-32.97903809 23.20079102 -32.9756543 24.21334961 -32.97216797 25.2565918 C-32.76197846 27.83026459 -32.76197846 27.83026459 -31.43994141 29.6730957 C-28.75748952 31.3661244 -26.64596447 31.23318001 -23.49023438 31.24291992 C-21.69779297 31.2487207 -21.69779297 31.2487207 -19.86914062 31.25463867 C-18.62003906 31.24303711 -17.3709375 31.23143555 -16.08398438 31.21948242 C-14.21033203 31.23688477 -14.21033203 31.23688477 -12.29882812 31.25463867 C-11.10386719 31.25077148 -9.90890625 31.2469043 -8.67773438 31.24291992 C-7.03321289 31.23784424 -7.03321289 31.23784424 -5.35546875 31.23266602 C-2.61341009 31.04514546 -2.61341009 31.04514546 -0.73022461 29.65722656 C1.77263135 25.69903584 0.88268013 20.43808594 0.85351562 15.90698242 C0.87349609 14.8093457 0.89347656 13.71170898 0.9140625 12.58081055 C0.91341797 11.52442383 0.91277344 10.46803711 0.91210938 9.37963867 C0.9139624 8.41421143 0.91581543 7.44878418 0.91772461 6.45410156 C0.25842786 3.024796 -0.76277354 1.87408396 -3.58398438 -0.15551758 C-6.42577395 -0.75174329 -6.42577395 -0.75174329 -9.55664062 -0.65161133 C-10.70326172 -0.65225586 -11.84988281 -0.65290039 -13.03125 -0.65356445 C-14.22427734 -0.63358398 -15.41730469 -0.61360352 -16.64648438 -0.59301758 C-17.84337891 -0.60010742 -19.04027344 -0.60719727 -20.2734375 -0.61450195 C-26.10941936 -0.87112064 -26.10941936 -0.87112064 -31.42407227 1.01806641 Z " fill="#040912" transform="translate(40.583984375,9.155517578125)"/>
<path d="M0 0 C1.32 0.33 2.64 0.66 4 1 C4.50636607 2.74816858 5.00484619 4.49862263 5.5 6.25 C5.7784375 7.22453125 6.056875 8.1990625 6.34375 9.203125 C7 12 7 12 7 16 C6.01 16 5.02 16 4 16 C4 14.68 4 13.36 4 12 C3.01 12 2.02 12 1 12 C0.67 13.32 0.34 14.64 0 16 C-0.99 16 -1.98 16 -3 16 C-2.68806536 14.27073126 -2.37542638 12.54158956 -2.0625 10.8125 C-1.88847656 9.84957031 -1.71445313 8.88664062 -1.53515625 7.89453125 C-1.0476265 5.25760028 -0.53328895 2.6280095 0 0 Z " fill="#A6C7CD" transform="translate(17,16)"/>
<path d="M0 0 C2.33944736 0.28730055 4.6739143 0.61936779 7 1 C7.33 2.32 7.66 3.64 8 5 C7.01 5 6.02 5 5 5 C5 4.01 5 3.02 5 2 C4.01 2.33 3.02 2.66 2 3 C2.18828772 5.44480079 2.18828772 5.44480079 3 8 C4.96758273 9.36020151 4.96758273 9.36020151 7 10 C1.6179402 10.35880399 1.6179402 10.35880399 -0.9375 8.875 C-2.53943488 6.04805609 -1.79584319 4.05073223 -1 1 C-0.67 0.67 -0.34 0.34 0 0 Z " fill="#AED0D7" transform="translate(28,21)"/>
<path d="M0 0 C0.66 0.33 1.32 0.66 2 1 C2 2.65 2 4.3 2 6 C-0.31 6.33 -2.62 6.66 -5 7 C-5.33 5.35 -5.66 3.7 -6 2 C-4.68 1.67 -3.36 1.34 -2 1 C-2 1.99 -2 2.98 -2 4 C-1.01 4 -0.02 4 1 4 C0.67 2.68 0.34 1.36 0 0 Z " fill="#111B29" transform="translate(35,22)"/>
<path d="M0 0 C0.33 0 0.66 0 1 0 C1.02696365 1.79158489 1.04637917 3.58328473 1.0625 5.375 C1.07410156 6.37273438 1.08570313 7.37046875 1.09765625 8.3984375 C1 11 1 11 0 13 C-0.99 13 -1.98 13 -3 13 C-2.69128878 11.20767663 -2.37790936 9.41615679 -2.0625 7.625 C-1.88847656 6.62726562 -1.71445313 5.62953125 -1.53515625 4.6015625 C-1 2 -1 2 0 0 Z " fill="#AFD2D8" transform="translate(17,19)"/>
<path d="M0 0 C1.4606285 2.64738916 2 3.89448334 2 7 C0.68 7 -0.64 7 -2 7 C-1.125 1.125 -1.125 1.125 0 0 Z " fill="#2F3C45" transform="translate(19,20)"/>
<path d="M0 0 C0.99 0 1.98 0 3 0 C3 0.99 3 1.98 3 3 C3.99 3.33 4.98 3.66 6 4 C4.02 4 2.04 4 0 4 C0 2.68 0 1.36 0 0 Z " fill="#54666C" transform="translate(30,23)"/>
<path d="M0 0 C1.67542976 0.28604898 3.34385343 0.61781233 5 1 C5.33 2.32 5.66 3.64 6 5 C5.01 5 4.02 5 3 5 C3 4.01 3 3.02 3 2 C1.68 1.67 0.36 1.34 -1 1 C-0.67 0.67 -0.34 0.34 0 0 Z " fill="#B4D8DF" transform="translate(30,21)"/>
</svg>
